<svg width="200" height="33" viewBox="0 0 200 33" fill="none" xmlns="http://www.w3.org/2000/svg">
<g clip-path="url(#clip0_694_428)">
<path d="M118.778 6.70786C118.548 6.71746 118.328 6.80464 118.154 6.95518C117.98 7.10573 117.862 7.31076 117.82 7.53686L113.935 27.6619C113.909 27.7604 113.906 27.8636 113.926 27.9635C113.947 28.0633 113.99 28.1571 114.053 28.2374C114.116 28.3177 114.196 28.3824 114.288 28.4264C114.38 28.4703 114.481 28.4924 114.583 28.4909H119.194C119.424 28.4814 119.644 28.3943 119.818 28.2438C119.992 28.0932 120.11 27.888 120.152 27.6619L124.037 7.53686C124.063 7.43833 124.066 7.3351 124.045 7.23524C124.025 7.13539 123.982 7.04163 123.919 6.96133C123.856 6.88102 123.776 6.81634 123.684 6.77237C123.592 6.72839 123.491 6.70631 123.389 6.70786H118.778ZM66.3029 23.0249C65.71 23.3408 65.0564 23.5262 64.3859 23.5689C63.9459 23.5949 63.2209 23.6469 62.7799 23.6469H61.4069C61.3048 23.6488 61.2037 23.627 61.1116 23.5832C61.0194 23.5393 60.9387 23.4746 60.8758 23.3942C60.813 23.3138 60.7697 23.2199 60.7494 23.1198C60.7291 23.0198 60.7323 22.9164 60.7589 22.8179L62.7789 12.3799C62.8201 12.1578 62.9341 11.9558 63.1029 11.8057C63.2716 11.6556 63.4855 11.5659 63.7109 11.5509H65.2389C65.768 11.5542 66.2962 11.5973 66.8189 11.6799C66.8189 11.6799 68.2429 11.8609 68.4509 12.1199C68.6512 12.3381 68.7622 12.6236 68.7619 12.9199C68.7312 13.4766 68.6621 14.0306 68.5549 14.5779L67.4149 20.5089C67.304 21.0424 67.1655 21.5697 66.9999 22.0889C66.8456 22.4517 66.6054 22.7716 66.2999 23.0209M75.1059 10.3819C74.9081 9.63245 74.4829 8.96274 73.8889 8.46486C73.1671 7.8758 72.3297 7.44483 71.4309 7.19986C70.4114 6.95387 69.3706 6.80653 68.3229 6.75986C67.7881 6.72955 67.2526 6.71221 66.7169 6.70786H58.4549C58.225 6.71746 58.0052 6.80464 57.8312 6.95518C57.6572 7.10573 57.5394 7.31076 57.4969 7.53686L53.6109 27.6619C53.5848 27.7603 53.5818 27.8635 53.6023 27.9632C53.6227 28.063 53.6659 28.1567 53.7286 28.237C53.7912 28.3173 53.8716 28.382 53.9634 28.426C54.0553 28.4701 54.1561 28.4923 54.2579 28.4909H62.6499C63.0899 28.4909 63.8159 28.4649 64.2559 28.4389C65.3533 28.3891 66.4448 28.2506 67.5199 28.0249C68.5478 27.7585 69.5267 27.3301 70.4199 26.7559C71.172 26.2712 71.8159 25.6362 72.3109 24.8909C72.5821 24.4707 72.7995 24.0182 72.9579 23.5439C73.0869 23.1039 73.2689 22.3789 73.3469 21.9379L75.0049 13.3909C75.0953 12.8488 75.173 12.3046 75.2379 11.7589C75.2624 11.2973 75.2189 10.8347 75.1089 10.3859M91.3999 19.6589C91.6298 19.6493 91.8496 19.5621 92.0236 19.4115C92.1975 19.261 92.3154 19.056 92.3579 18.8299L92.9799 15.6179C93.0031 15.5211 93.0037 15.4203 92.9817 15.3232C92.9597 15.2262 92.9157 15.1355 92.8531 15.0581C92.7904 14.9808 92.7108 14.9189 92.6205 14.8773C92.5301 14.8356 92.4314 14.8153 92.3319 14.8179H84.6649C84.5633 14.8209 84.4626 14.7994 84.371 14.7554C84.2795 14.7113 84.1999 14.6459 84.1389 14.5646C84.078 14.4834 84.0374 14.3887 84.0207 14.2885C84.004 14.1883 84.0116 14.0855 84.0429 13.9889L84.3539 12.3829C84.4007 12.1588 84.5199 11.9564 84.6929 11.8066C84.866 11.6569 85.0835 11.5681 85.3119 11.5539H93.7559C93.9785 11.5446 94.1915 11.4606 94.3606 11.3155C94.5297 11.1703 94.645 10.9725 94.6879 10.7539L95.3099 7.54186C95.3412 7.44521 95.3488 7.34246 95.3321 7.24226C95.3154 7.14206 95.2748 7.04734 95.2138 6.96608C95.1529 6.88483 95.0733 6.81941 94.9817 6.77534C94.8902 6.73127 94.7894 6.70985 94.6879 6.71286H80.0279C79.798 6.72246 79.5782 6.80964 79.4042 6.96018C79.2302 7.11073 79.1124 7.31576 79.0699 7.54186L75.1849 27.6669C75.1588 27.7653 75.1558 27.8685 75.1763 27.9682C75.1967 28.068 75.2399 28.1617 75.3026 28.242C75.3652 28.3223 75.4456 28.387 75.5374 28.431C75.6293 28.4751 75.7301 28.4973 75.8319 28.4959H90.4919C90.7205 28.4823 90.9383 28.3937 91.1115 28.2439C91.2847 28.094 91.4036 27.8912 91.4499 27.6669L92.0499 24.4549C92.0784 24.3599 92.0837 24.2595 92.0655 24.162C92.0472 24.0645 92.006 23.9728 91.9451 23.8945C91.8842 23.8162 91.8055 23.7536 91.7156 23.712C91.6256 23.6703 91.527 23.6507 91.4279 23.6549H82.9839C82.8827 23.6543 82.783 23.6308 82.6921 23.5861C82.6013 23.5415 82.5218 23.4769 82.4596 23.3971C82.3973 23.3173 82.3539 23.2245 82.3327 23.1256C82.3114 23.0266 82.3129 22.9242 82.3369 22.8259L82.7769 20.4689C82.8293 20.2502 82.9508 20.0543 83.1233 19.9101C83.2959 19.766 83.5104 19.6814 83.7349 19.6689L91.3999 19.6589ZM114.634 7.12286C114.556 7.12286 114.116 7.04486 113.676 6.96786C113.676 6.96786 111.811 6.65686 110.542 6.55386C109.37 6.45568 108.195 6.40398 107.02 6.39886C105.553 6.37212 104.088 6.48497 102.643 6.73586C101.609 6.91748 100.617 7.28619 99.7159 7.82386C98.9655 8.31802 98.344 8.98415 97.9029 9.76686C97.4736 10.6542 97.1684 11.5964 96.9959 12.5669C96.7853 13.5106 96.681 14.4749 96.6849 15.4419C96.6818 16.1831 96.9284 16.9038 97.3849 17.4879C97.927 18.0724 98.6154 18.5015 99.3789 18.7309C100.512 19.1186 101.672 19.4215 102.85 19.6369C103.808 19.8179 104.585 19.9739 105.103 20.1289C105.472 20.2102 105.824 20.3594 106.139 20.5689C106.211 20.6234 106.269 20.6938 106.31 20.7746C106.35 20.8555 106.371 20.9445 106.372 21.0349C106.357 21.409 106.314 21.7814 106.242 22.1489C106.177 22.4996 106.064 22.8395 105.905 23.1589C105.791 23.3947 105.611 23.5926 105.387 23.7289C105.081 23.9183 104.735 24.0337 104.377 24.0659C103.809 24.1239 103.239 24.15 102.668 24.1439C101.462 24.1592 100.257 24.0638 99.0679 23.8589C97.9539 23.6779 96.5299 23.3409 96.5299 23.3409C96.1159 23.2409 95.7009 23.1339 95.6489 23.1079C95.5709 23.0819 95.3639 23.4189 95.1829 23.8329L93.9659 26.5269C93.7849 26.9669 93.7069 27.3269 93.7849 27.3559C93.8629 27.3849 94.2769 27.5369 94.6919 27.6929C95.6251 28.002 96.5766 28.2528 97.5409 28.4439C98.953 28.6837 100.383 28.8051 101.815 28.8069C103.387 28.8332 104.957 28.7029 106.503 28.4179C107.617 28.2196 108.681 27.8062 109.637 27.2009C110.419 26.6812 111.053 25.9672 111.476 25.1289C111.913 24.2346 112.227 23.2848 112.408 22.3059C112.596 21.4357 112.717 20.5525 112.771 19.6639C112.837 18.9466 112.622 18.2317 112.171 17.6699C111.634 17.062 110.946 16.6064 110.177 16.3489C108.947 15.8922 107.682 15.537 106.395 15.2869C105.665 15.1522 104.94 14.9968 104.219 14.8209C103.855 14.7459 103.511 14.5961 103.209 14.3809C103.139 14.3321 103.083 14.2658 103.047 14.1885C103.01 14.1113 102.995 14.0259 103.002 13.9409C103.018 13.5568 103.07 13.175 103.158 12.8009C103.201 12.5012 103.298 12.2117 103.443 11.9459C103.548 11.741 103.71 11.5703 103.909 11.4539C104.183 11.3109 104.482 11.2229 104.79 11.1949C105.288 11.1375 105.789 11.1114 106.29 11.1169C107.354 11.1143 108.417 11.166 109.476 11.2719C110.46 11.3499 112.248 11.6089 112.248 11.6089C112.688 11.6609 113.103 11.7389 113.154 11.7389C113.232 11.7649 113.413 11.4019 113.543 10.9879L114.553 7.95786C114.682 7.51786 114.734 7.15786 114.631 7.12886M137.711 7.32986C137.996 6.99286 137.866 6.70786 137.426 6.70786H131.909C131.405 6.73974 130.933 6.96215 130.588 7.32986L122.714 16.7059C122.565 16.8983 122.47 17.1268 122.438 17.368C122.406 17.6091 122.439 17.8544 122.533 18.0789L127.169 27.7399C127.276 27.9542 127.438 28.1365 127.638 28.2684C127.838 28.4002 128.07 28.477 128.309 28.4909H133.696C134.136 28.4909 134.344 28.1539 134.136 27.7399L129.319 18.1569C129.222 17.9391 129.185 17.6991 129.212 17.4621C129.239 17.2251 129.33 16.9998 129.474 16.8099L137.711 7.32986Z" fill="#A60012"/>
<path d="M157.992 7.5371C158.018 7.43866 158.021 7.33551 158 7.23573C157.98 7.13595 157.937 7.04226 157.874 6.96197C157.812 6.88168 157.731 6.81699 157.639 6.77295C157.547 6.7289 157.447 6.70671 157.345 6.7081H139.369C139.139 6.7177 138.919 6.80488 138.745 6.95542C138.571 7.10596 138.453 7.311 138.411 7.5371L137.789 10.7491C137.766 10.8458 137.765 10.9465 137.787 11.0435C137.809 11.1405 137.853 11.2311 137.915 11.3084C137.978 11.3857 138.057 11.4476 138.148 11.4894C138.238 11.5311 138.336 11.5515 138.436 11.5491H143.513C143.614 11.5497 143.714 11.5732 143.805 11.6178C143.895 11.6625 143.975 11.7271 144.037 11.8069C144.099 11.8866 144.143 11.9795 144.164 12.0784C144.185 12.1773 144.184 12.2798 144.16 12.3781L141.203 27.6621C141.177 27.7606 141.174 27.8639 141.194 27.9637C141.215 28.0636 141.258 28.1573 141.321 28.2376C141.384 28.3179 141.464 28.3826 141.556 28.4266C141.648 28.4706 141.749 28.4926 141.851 28.4911H146.461C146.691 28.4815 146.911 28.3943 147.085 28.2438C147.258 28.0932 147.376 27.8882 147.419 27.6621L150.372 12.3801C150.419 12.1561 150.538 11.9536 150.711 11.8039C150.884 11.6541 151.101 11.5653 151.33 11.5511H156.407C156.633 11.5427 156.849 11.4595 157.022 11.3147C157.196 11.1699 157.316 10.9717 157.365 10.7511L157.992 7.5371ZM165.296 23.9591C164.333 24.0696 163.362 23.8408 162.55 23.3121C162.419 23.214 162.31 23.0896 162.229 22.9468C162.149 22.8041 162.1 22.6461 162.084 22.4831C162.075 21.9362 162.118 21.3898 162.213 20.8511L163.456 14.4791C163.56 13.9386 163.716 13.4095 163.922 12.8991C164.113 12.4922 164.42 12.1502 164.803 11.9151C165.739 11.4094 166.797 11.1762 167.859 11.2421C168.821 11.1396 169.79 11.3678 170.605 11.8891C170.736 11.9873 170.845 12.1117 170.925 12.2544C171.006 12.3972 171.055 12.5551 171.071 12.7181C171.07 13.2658 171.018 13.8122 170.915 14.3501L169.698 20.7211C169.582 21.2586 169.426 21.7868 169.232 22.3011C169.037 22.7058 168.732 23.047 168.351 23.2851C167.415 23.7908 166.356 24.024 165.295 23.9581M177.287 10.7491C177.048 9.89236 176.572 9.12044 175.914 8.5221C175.12 7.80068 174.172 7.26927 173.143 6.9681C171.687 6.54889 170.176 6.35663 168.662 6.3981C167.097 6.36828 165.537 6.56018 164.026 6.9681C162.821 7.27176 161.681 7.78931 160.659 8.4961C159.807 9.06303 159.076 9.79389 158.509 10.6461C158.18 11.1723 157.919 11.7381 157.732 12.3301C157.603 12.7701 157.421 13.4961 157.343 13.9361L155.943 21.1361C155.865 21.5761 155.761 22.3271 155.71 22.7941C155.686 23.3513 155.738 23.9091 155.865 24.4521C156.094 25.307 156.561 26.0793 157.212 26.6791C158.022 27.4062 158.987 27.9378 160.035 28.2331C161.472 28.6527 162.967 28.845 164.464 28.8031C166.037 28.8362 167.607 28.6443 169.126 28.2331C170.317 27.9275 171.447 27.4202 172.467 26.7331C173.314 26.15 174.044 25.4116 174.617 24.5571C174.946 24.0309 175.207 23.4651 175.394 22.8731C175.524 22.4331 175.705 21.7071 175.808 21.2671L177.181 14.0671C177.296 13.5292 177.374 12.9839 177.414 12.4351C177.454 11.8705 177.411 11.303 177.285 10.7511M191.067 17.1981C190.845 17.2441 190.619 17.2702 190.393 17.2761C189.953 17.3021 189.227 17.3281 188.787 17.3281H186.511C186.409 17.3295 186.308 17.3073 186.216 17.2633C186.125 17.2192 186.044 17.1545 185.982 17.0742C185.919 16.9939 185.876 16.9002 185.855 16.8005C185.835 16.7007 185.838 16.5975 185.864 16.4991L186.664 12.3811C186.711 12.1571 186.83 11.9546 187.003 11.8049C187.176 11.6551 187.393 11.5663 187.622 11.5521H190.031C190.316 11.5521 190.756 11.5781 191.119 11.6041C191.962 11.6197 192.792 11.814 193.554 12.1741C194.927 12.8741 195.237 16.5251 191.068 17.1991M199.305 9.8691C199.091 9.26086 198.725 8.71713 198.243 8.2891C197.521 7.71492 196.68 7.30814 195.782 7.0981C194.782 6.90837 193.768 6.79571 192.751 6.7611C192.216 6.73077 191.681 6.71343 191.145 6.7091H182.339C182.109 6.7187 181.889 6.80588 181.715 6.95642C181.541 7.10696 181.423 7.312 181.381 7.5381L177.496 27.6631C177.47 27.7616 177.467 27.8649 177.487 27.9647C177.508 28.0646 177.551 28.1583 177.614 28.2386C177.677 28.3189 177.757 28.3836 177.849 28.4276C177.941 28.4716 178.042 28.4936 178.144 28.4921H182.754C182.984 28.4827 183.204 28.3956 183.378 28.245C183.552 28.0944 183.67 27.8893 183.712 27.6631L184.644 22.8971C184.686 22.6709 184.804 22.4658 184.978 22.3152C185.152 22.1646 185.372 22.0775 185.602 22.0681H188.011C188.011 22.0681 197.853 23.3891 199.459 15.4681C199.914 13.6234 199.86 11.6898 199.304 9.8731" fill="#EBAE00"/>
<path d="M19.8622 2.12405C19.1943 2.68865 18.7227 3.4505 18.5152 4.30005L17.4792 8.75505C17.369 9.11081 17.3454 9.48771 17.4102 9.85443C17.4751 10.2212 17.6265 10.5671 17.8519 10.8635C18.0773 11.16 18.3703 11.3983 18.7063 11.5588C19.0424 11.7192 19.4119 11.7971 19.7842 11.7861H24.1352C24.9813 11.7629 25.7943 11.4521 26.4402 10.9051C27.1153 10.3577 27.5891 9.60131 27.7872 8.75505L28.8232 4.30005C28.936 3.9427 28.9617 3.56357 28.8983 3.19424C28.8349 2.82492 28.6842 2.47609 28.4586 2.17681C28.2331 1.87754 27.9394 1.63647 27.6019 1.4737C27.2643 1.31093 26.8928 1.23117 26.5182 1.24105H22.1672C21.3211 1.26423 20.5081 1.57496 19.8622 2.12205" fill="#A60012"/>
<path d="M42.2401 3.23824H38.3551C37.6008 3.259 36.8774 3.54188 36.3091 4.03824C35.711 4.52168 35.2844 5.18466 35.0921 5.92924L34.5481 8.34024C34.0235 10.2994 32.8895 12.041 31.3101 13.3132C29.6795 14.7572 27.5556 15.5178 25.3791 15.4372H18.4371C17.498 15.5138 16.5544 15.3603 15.6879 14.9903C14.8214 14.6202 14.0581 14.0446 13.4641 13.3132C12.5722 12.0315 12.2018 10.4583 12.4281 8.91324L13.6201 3.65224C13.7606 3.22805 13.7969 2.77623 13.7256 2.33507C13.6544 1.89392 13.4778 1.47644 13.2109 1.11805C12.944 0.759666 12.5946 0.470933 12.1923 0.276341C11.79 0.0817488 11.3467 -0.0129633 10.9001 0.000236181H5.69407C4.68394 0.028405 3.71429 0.403411 2.94807 1.06224C2.13229 1.72105 1.55828 2.63201 1.31607 3.65224L0.10007 8.96224C-0.0405051 9.38642 -0.0767141 9.83825 -0.00548646 10.2794C0.0657412 10.7206 0.242305 11.138 0.509231 11.4964C0.776158 11.8548 1.12557 12.1435 1.52785 12.3381C1.93013 12.5327 2.3734 12.6274 2.82007 12.6142H7.74007C8.52422 12.6517 9.29049 12.8614 9.98442 13.2285C10.6783 13.5956 11.2829 14.1111 11.7551 14.7382C12.298 15.5467 12.6541 16.466 12.7975 17.4293C12.9409 18.3925 12.868 19.3757 12.5841 20.3072L10.9521 27.4072C10.7955 27.9918 10.77 28.6038 10.8775 29.1993C10.9851 29.7949 11.2229 30.3593 11.5741 30.8522C11.9264 31.3169 12.3861 31.6892 12.9138 31.9374C13.4415 32.1856 14.0215 32.3022 14.6041 32.2772H21.5461C22.9023 32.2537 24.206 31.7486 25.2241 30.8522C26.3145 29.9769 27.0806 28.7616 27.4001 27.4002L29.0321 20.3002C29.4241 18.0966 30.6133 16.1143 32.3731 14.7312C33.7878 13.5037 35.5573 12.7597 37.4241 12.6072H40.0901C40.8443 12.5866 41.5678 12.3037 42.1361 11.8072C42.7435 11.3212 43.1717 10.6467 43.3531 9.89024L44.2601 5.92724C44.3603 5.6133 44.3841 5.27993 44.3293 4.95496C44.2744 4.62999 44.1427 4.32285 43.945 4.05918C43.7473 3.79551 43.4894 3.58296 43.1928 3.43927C42.8962 3.29559 42.5695 3.22495 42.2401 3.23324" fill="#EBAE00"/>
</g>
<defs>
<clipPath id="clip0_694_428">
<rect width="199.752" height="32.273" fill="white"/>
</clipPath>
</defs>
</svg>
